<?xml version="1.0" encoding="utf-8"?>
<svg version="1.1" xmlns:xlink="http://www.w3.org/1999/xlink" width="10px" height="10px" xmlns="http://www.w3.org/2000/svg">
  <g transform="matrix(1 0 0 1 -34 -104 )">
    <path d="M 39 104  C 41.8 104  44 106.2  44 109  C 44 111.8  41.8 114  39 114  C 36.2 114  34 111.8  34 109  C 34 106.2  36.2 104  39 104  Z " fill-rule="nonzero" fill="#f59a23" stroke="none" />
    <path d="M 39 104.5  C 41.52 104.5  43.5 106.48  43.5 109  C 43.5 111.52  41.52 113.5  39 113.5  C 36.48 113.5  34.5 111.52  34.5 109  C 34.5 106.48  36.48 104.5  39 104.5  Z " stroke-width="1" stroke="#facd91" fill="none" />
  </g>
</svg>